<?xml version="1.0" standalone="no"?>
<!DOCTYPE svg PUBLIC "-//W3C//DTD SVG 20010904//EN"
 "http://www.w3.org/TR/2001/REC-SVG-20010904/DTD/svg10.dtd">
<svg version="1.0" xmlns="http://www.w3.org/2000/svg"
 width="390.000000pt" height="280.000000pt" viewBox="0 0 390.000000 280.000000"
 preserveAspectRatio="xMidYMid meet">
<metadata>
Created by potrace 1.15, written by Peter Selinger 2001-2017
</metadata>
<g transform="translate(0.000000,280.000000) scale(0.100000,-0.100000)"
fill="#000000" stroke="none">
<path d="M2350 2430 c-72 -6 -73 -7 -25 -10 28 -3 -35 -7 -140 -10 l-190 -5
115 -18 c63 -10 122 -18 130 -18 31 -1 110 -21 110 -29 0 -4 -9 -10 -19 -13
-13 -3 -22 -17 -27 -43 -3 -22 -10 -43 -14 -49 -4 -5 -11 -29 -15 -52 -4 -24
-10 -43 -14 -43 -4 0 -13 -36 -20 -79 -8 -49 -19 -82 -27 -85 -8 -3 -14 -12
-14 -21 0 -9 -9 -32 -19 -53 -37 -71 -81 -116 -152 -154 -38 -20 -79 -48 -90
-62 -12 -15 -31 -26 -45 -26 -13 0 -24 -4 -24 -10 0 -5 -6 -10 -14 -10 -8 0
-26 -13 -39 -30 -19 -22 -34 -30 -59 -30 -29 0 -35 4 -46 38 -24 69 -50 176
-63 255 -21 139 6 469 43 514 5 7 33 14 61 16 l52 3 -65 4 -65 4 75 6 c70 6
66 7 -47 8 l-123 2 2 -112 c1 -62 3 -86 5 -53 2 33 6 71 10 85 6 24 6 24 13
-9 5 -18 7 -68 5 -110 -2 -72 -3 -540 -1 -646 l1 -50 105 0 c58 0 247 -8 420
-18 173 -10 373 -19 444 -20 l129 -2 4 400 c3 220 6 428 6 462 1 34 -2 65 -6
70 -11 10 -266 13 -367 3z"/>
<path d="M3030 1891 c0 -19 6 -21 68 -23 l67 -2 -70 -6 c-67 -6 -68 -6 -25
-11 l45 -6 -42 -1 c-36 -2 -43 -5 -43 -22 0 -19 6 -20 108 -18 l107 2 -95 6
-95 6 95 4 c93 3 94 4 35 10 l-60 7 60 1 c43 2 56 5 45 12 -10 6 -11 10 -2 10
6 0 12 9 12 20 0 16 -7 20 -37 20 -21 0 -68 3 -105 7 -65 6 -68 5 -68 -16z"/>
<path d="M3030 1680 c0 -16 7 -20 33 -21 31 -2 31 -2 -8 -9 -32 -6 -21 -8 55
-11 l95 -3 -87 -3 c-49 -2 -88 -7 -88 -11 0 -4 42 -7 92 -6 74 0 77 0 18 -3
-41 -2 -86 -6 -100 -10 -23 -6 -21 -7 15 -13 l40 -7 -40 -3 c-36 -3 -34 -4 20
-10 l60 -7 -58 -1 c-38 -1 -56 -6 -52 -13 4 -6 23 -8 44 -5 20 3 66 5 104 6
74 0 92 17 25 23 l-43 4 43 1 42 2 0 40 c0 31 -4 40 -17 41 -15 0 -15 2 2 9
13 6 -16 9 -85 11 l-105 3 105 6 105 6 -107 2 c-102 2 -108 1 -108 -18z"/>
<path d="M3135 1380 c-11 -4 -41 -15 -67 -25 -41 -14 -47 -20 -50 -48 l-3 -32
-80 3 c-85 3 -490 24 -813 43 -106 6 -195 9 -197 7 -7 -7 442 -39 640 -46 177
-7 180 -7 183 -30 4 -26 58 -59 65 -39 2 6 8 -1 12 -16 4 -15 5 -31 1 -34 -3
-4 -70 -6 -149 -6 -110 0 -132 -2 -97 -9 25 -5 57 -6 72 -4 15 3 30 1 34 -5 3
-6 18 -7 34 -4 22 5 28 2 32 -13 9 -32 -50 -33 -362 -7 -367 31 -491 35 -514
16 -28 -24 -5 -28 209 -45 497 -39 655 -47 655 -36 0 4 34 17 76 29 61 18 79
20 85 10 4 -7 5 -17 3 -21 -3 -5 11 -1 30 9 37 17 33 33 -10 33 -11 0 -29 6
-39 14 -11 8 -24 12 -30 9 -7 -2 -12 2 -12 9 0 15 41 17 69 4 9 -4 25 -3 35 3
16 9 14 11 -12 11 -25 1 -27 3 -10 9 11 5 30 4 42 -2 28 -13 51 4 55 41 3 23
12 29 76 50 69 23 72 25 72 56 0 17 3 41 6 54 7 24 -5 27 -41 12z"/>
<path d="M3405 1117 c-45 -20 -47 -22 -25 -28 18 -5 10 -7 -27 -8 -56 -1 -74
-13 -46 -30 16 -9 16 -10 1 -11 -17 0 -21 -9 -33 -68 -4 -18 -17 -43 -28 -56
-42 -43 -58 -67 -52 -76 4 -6 -2 -10 -13 -10 -23 0 -52 -30 -52 -53 0 -9 -7
-17 -15 -17 -8 0 -15 -7 -15 -16 0 -8 -7 -22 -15 -30 -8 -9 -18 -27 -22 -42
-3 -15 -12 -33 -20 -40 -7 -8 -11 -18 -8 -23 4 -5 2 -9 -3 -9 -11 0 -23 32
-26 69 -1 14 -7 26 -14 29 -7 2 -12 13 -13 25 0 18 -2 19 -7 5 -5 -11 -12 -14
-21 -9 -10 7 -12 33 -9 115 2 58 1 106 -3 106 -8 0 -26 -21 -31 -35 -1 -5 -6
-9 -10 -8 -11 4 -18 -109 -20 -339 -2 -119 -6 -219 -9 -223 -4 -3 -96 3 -205
14 -110 11 -273 28 -364 37 -91 9 -174 20 -185 25 -11 4 -65 13 -120 19 -55 6
-241 29 -414 51 -172 22 -315 38 -318 35 -7 -6 25 -14 92 -21 74 -8 97 -14 90
-24 -2 -5 15 -6 38 -4 24 3 108 -4 188 -16 79 -11 216 -30 304 -41 88 -11 205
-26 260 -34 55 -7 158 -19 230 -26 76 -8 121 -16 110 -20 -41 -15 560 -25
1208 -21 l117 1 0 231 0 231 -132 -2 c-73 -2 -172 -2 -220 -2 l-88 2 -2 184
-3 185 -50 -22z"/>
<path d="M2158 713 c-2 -54 -4 -99 -3 -100 0 0 21 1 48 4 37 4 45 8 37 18 -6
7 -8 25 -4 39 5 19 13 26 33 27 24 1 24 2 4 7 -21 7 -21 7 -2 30 18 23 21 24
141 17 68 -4 126 -9 130 -12 4 -2 62 -6 128 -9 85 -4 120 -2 120 6 0 6 5 8 10
5 6 -3 10 -1 10 4 0 6 -8 11 -17 11 -10 0 -153 11 -318 25 -165 14 -303 25
-307 25 -3 0 -8 -44 -10 -97z"/>
<path d="M0 749 l0 -42 61 7 c34 3 95 6 135 6 56 0 74 3 74 14 0 10 15 12 71
8 51 -3 70 -2 65 6 -4 7 -54 11 -139 11 -134 1 -237 8 -247 17 -3 3 30 4 73 2
42 -1 77 0 77 5 0 4 -38 7 -85 7 l-85 0 0 -41z"/>
<path d="M1220 669 c0 -14 56 -62 78 -66 72 -15 190 -36 242 -44 36 -5 78 -13
94 -19 16 -5 41 -10 55 -10 15 0 31 -4 37 -9 16 -16 74 -17 83 -2 8 12 12 11
26 -3 13 -12 31 -17 61 -15 24 2 49 -3 58 -10 22 -18 50 -6 43 19 -3 11 -1 18
4 14 5 -3 9 -14 9 -24 0 -22 37 -37 53 -21 6 6 21 11 34 11 27 0 31 26 6 34
-10 2 -49 8 -88 11 -199 18 -584 84 -727 124 -38 10 -68 14 -68 10z"/>
</g>
</svg>
